# xmcd CD database file
#
# Track frame offsets:
#	150
#	19013
#	37341
#	53706
#	68842
#	80740
#	101132
#	117941
#	134575
#	154099
#	171716
#
# Disc length: 2521 seconds
#
# Revision: 0
# Processed by: cddbd v1.5.2PL0 Copyright (c) Steve Scherf et al.
# Submitted via: jetAudio 7
#
DISCID=a109d70b
DTITLE=음악가 없음 - 앨범 없음
DYEAR=1900
DGENRE=장르 없음
TTITLE0=小花 (ちっちゃなはな)
TTITLE1=島人 (しまんちゅう)
TTITLE2=夜来香
TTITLE3=ヒマラヤ
TTITLE4=美しき大島
TTITLE5=花
TTITLE6=The Northern Island
TTITLE7=Fields Of St.etienne
TTITLE8=Spring Canon
TTITLE9=Sylvie
TTITLE10=天山之春
EXTD=
EXTT0=
EXTT1=
EXTT2=
EXTT3=
EXTT4=
EXTT5=
EXTT6=
EXTT7=
EXTT8=
EXTT9=
EXTT10=
PLAYORDER=
